<svg width="254" height="23" viewBox="0 0 254 23" fill="none" xmlns="http://www.w3.org/2000/svg">
<path d="M0.564 17V0.899999H4.06L9.189 11.112L14.249 0.899999H17.745V17H14.801V5.891L10.316 14.7H7.993L3.508 5.891V17H0.564ZM26.3427 17.276C25.1927 17.276 24.173 17.0307 23.2837 16.54C22.3944 16.0493 21.6967 15.3593 21.1907 14.47C20.6847 13.5807 20.4317 12.5533 20.4317 11.388C20.4317 10.2073 20.677 9.157 21.1677 8.237C21.6737 7.317 22.3637 6.604 23.2377 6.098C24.127 5.57667 25.1697 5.316 26.3657 5.316C27.485 5.316 28.474 5.56133 29.3327 6.052C30.1914 6.54267 30.8584 7.21733 31.3337 8.076C31.8244 8.91933 32.0697 9.86233 32.0697 10.905C32.0697 11.0737 32.062 11.25 32.0467 11.434C32.0467 11.618 32.039 11.8097 32.0237 12.009H23.3527C23.414 12.8983 23.7207 13.596 24.2727 14.102C24.84 14.608 25.5224 14.861 26.3197 14.861C26.9177 14.861 27.416 14.7307 27.8147 14.47C28.2287 14.194 28.5354 13.8413 28.7347 13.412H31.7247C31.51 14.1327 31.1497 14.792 30.6437 15.39C30.153 15.9727 29.5397 16.4327 28.8037 16.77C28.083 17.1073 27.2627 17.276 26.3427 17.276ZM26.3657 7.708C25.645 7.708 25.0087 7.915 24.4567 8.329C23.9047 8.72767 23.552 9.341 23.3987 10.169H29.0797C29.0337 9.41767 28.7577 8.81967 28.2517 8.375C27.7457 7.93033 27.117 7.708 26.3657 7.708ZM34.5458 17V5.592H37.1448L37.3748 7.524C37.7274 6.84933 38.2334 6.31267 38.8928 5.914C39.5674 5.51533 40.3571 5.316 41.2618 5.316C42.6724 5.316 43.7688 5.76067 44.5508 6.65C45.3328 7.53933 45.7238 8.84267 45.7238 10.56V17H42.7798V10.836C42.7798 9.85467 42.5804 9.10333 42.1818 8.582C41.7831 8.06067 41.1621 7.8 40.3188 7.8C39.4908 7.8 38.8084 8.09133 38.2718 8.674C37.7504 9.25667 37.4898 10.0693 37.4898 11.112V17H34.5458ZM53.6219 17C52.4259 17 51.4676 16.7087 50.7469 16.126C50.0263 15.5433 49.6659 14.5083 49.6659 13.021V8.053H47.7109V5.592H49.6659L50.0109 2.533H52.6099V5.592H55.6919V8.053H52.6099V13.044C52.6099 13.596 52.7249 13.9793 52.9549 14.194C53.2003 14.3933 53.6143 14.493 54.1969 14.493H55.6229V17H53.6219ZM63.4016 17.276C62.2976 17.276 61.301 17.023 60.4116 16.517C59.5376 16.011 58.84 15.3133 58.3186 14.424C57.8126 13.5193 57.5596 12.4767 57.5596 11.296C57.5596 10.1153 57.8203 9.08033 58.3416 8.191C58.863 7.28633 59.5606 6.581 60.4346 6.075C61.324 5.569 62.3206 5.316 63.4246 5.316C64.5133 5.316 65.4946 5.569 66.3686 6.075C67.258 6.581 67.9556 7.28633 68.4616 8.191C68.983 9.08033 69.2436 10.1153 69.2436 11.296C69.2436 12.4767 68.983 13.5193 68.4616 14.424C67.9556 15.3133 67.258 16.011 66.3686 16.517C65.4793 17.023 64.4903 17.276 63.4016 17.276ZM63.4016 14.723C64.1683 14.723 64.8353 14.4393 65.4026 13.872C65.97 13.2893 66.2536 12.4307 66.2536 11.296C66.2536 10.1613 65.97 9.31033 65.4026 8.743C64.8353 8.16033 64.176 7.869 63.4246 7.869C62.6426 7.869 61.968 8.16033 61.4006 8.743C60.8486 9.31033 60.5726 10.1613 60.5726 11.296C60.5726 12.4307 60.8486 13.2893 61.4006 13.872C61.968 14.4393 62.635 14.723 63.4016 14.723ZM71.8759 17V5.592H74.4979L74.7739 7.731C75.1879 6.995 75.7475 6.41233 76.4529 5.983C77.1735 5.53833 78.0169 5.316 78.9829 5.316V8.421H78.1549C77.5109 8.421 76.9359 8.52067 76.4299 8.72C75.9239 8.91933 75.5252 9.26433 75.2339 9.755C74.9579 10.2457 74.8199 10.928 74.8199 11.802V17H71.8759ZM85.71 17.276C84.698 17.276 83.8087 17.115 83.042 16.793C82.2753 16.4557 81.662 15.9957 81.202 15.413C80.742 14.8303 80.466 14.1557 80.374 13.389H83.341C83.433 13.8337 83.6783 14.217 84.077 14.539C84.491 14.8457 85.02 14.999 85.664 14.999C86.308 14.999 86.7757 14.8687 87.067 14.608C87.3737 14.3473 87.527 14.0483 87.527 13.711C87.527 13.2203 87.3123 12.8907 86.883 12.722C86.4537 12.538 85.8557 12.3617 85.089 12.193C84.5983 12.0857 84.1 11.9553 83.594 11.802C83.088 11.6487 82.6203 11.457 82.191 11.227C81.777 10.9817 81.4397 10.675 81.179 10.307C80.9183 9.92367 80.788 9.456 80.788 8.904C80.788 7.892 81.1867 7.041 81.984 6.351C82.7967 5.661 83.9313 5.316 85.388 5.316C86.7373 5.316 87.8107 5.63033 88.608 6.259C89.4207 6.88767 89.9037 7.754 90.057 8.858H87.274C87.1053 8.01467 86.469 7.593 85.365 7.593C84.813 7.593 84.3837 7.70033 84.077 7.915C83.7857 8.12967 83.64 8.398 83.64 8.72C83.64 9.05733 83.8623 9.32567 84.307 9.525C84.7517 9.72433 85.342 9.90833 86.078 10.077C86.8753 10.261 87.6037 10.468 88.263 10.698C88.9377 10.9127 89.4743 11.2423 89.873 11.687C90.2717 12.1163 90.471 12.7373 90.471 13.55C90.4863 14.2553 90.3023 14.8917 89.919 15.459C89.5357 16.0263 88.9837 16.471 88.263 16.793C87.5423 17.115 86.6913 17.276 85.71 17.276ZM93.079 17V0.439999H96.023V7.34C96.4063 6.71133 96.92 6.22067 97.564 5.868C98.2233 5.5 98.9747 5.316 99.818 5.316C101.229 5.316 102.317 5.76067 103.084 6.65C103.866 7.53933 104.257 8.84267 104.257 10.56V17H101.336V10.836C101.336 9.85467 101.137 9.10333 100.738 8.582C100.355 8.06067 99.7413 7.8 98.898 7.8C98.07 7.8 97.38 8.09133 96.828 8.674C96.2913 9.25667 96.023 10.0693 96.023 11.112V17H93.079ZM108.659 3.821C108.122 3.821 107.678 3.66 107.325 3.338C106.988 3.016 106.819 2.60967 106.819 2.119C106.819 1.62833 106.988 1.22967 107.325 0.922999C107.678 0.600999 108.122 0.439999 108.659 0.439999C109.196 0.439999 109.633 0.600999 109.97 0.922999C110.323 1.22967 110.499 1.62833 110.499 2.119C110.499 2.60967 110.323 3.016 109.97 3.338C109.633 3.66 109.196 3.821 108.659 3.821ZM107.187 17V5.592H110.131V17H107.187ZM113.204 22.06V5.592H115.826L116.148 7.225C116.516 6.719 116.999 6.27433 117.597 5.891C118.21 5.50767 119 5.316 119.966 5.316C121.039 5.316 121.998 5.57667 122.841 6.098C123.684 6.61933 124.351 7.33233 124.842 8.237C125.333 9.14167 125.578 10.169 125.578 11.319C125.578 12.469 125.333 13.4963 124.842 14.401C124.351 15.2903 123.684 15.9957 122.841 16.517C121.998 17.023 121.039 17.276 119.966 17.276C119.107 17.276 118.356 17.115 117.712 16.793C117.068 16.471 116.547 16.0187 116.148 15.436V22.06H113.204ZM119.345 14.7C120.28 14.7 121.055 14.3857 121.668 13.757C122.281 13.1283 122.588 12.3157 122.588 11.319C122.588 10.3223 122.281 9.502 121.668 8.858C121.055 8.214 120.28 7.892 119.345 7.892C118.394 7.892 117.612 8.214 116.999 8.858C116.401 9.48667 116.102 10.2993 116.102 11.296C116.102 12.2927 116.401 13.113 116.999 13.757C117.612 14.3857 118.394 14.7 119.345 14.7ZM133.688 17V5.592H136.287L136.54 7.133C136.908 6.581 137.391 6.144 137.989 5.822C138.603 5.48467 139.308 5.316 140.105 5.316C141.869 5.316 143.118 5.99833 143.854 7.363C144.268 6.73433 144.82 6.236 145.51 5.868C146.216 5.5 146.982 5.316 147.81 5.316C149.298 5.316 150.44 5.76067 151.237 6.65C152.035 7.53933 152.433 8.84267 152.433 10.56V17H149.489V10.836C149.489 9.85467 149.298 9.10333 148.914 8.582C148.546 8.06067 147.971 7.8 147.189 7.8C146.392 7.8 145.748 8.09133 145.257 8.674C144.782 9.25667 144.544 10.0693 144.544 11.112V17H141.6V10.836C141.6 9.85467 141.409 9.10333 141.025 8.582C140.642 8.06067 140.052 7.8 139.254 7.8C138.472 7.8 137.836 8.09133 137.345 8.674C136.87 9.25667 136.632 10.0693 136.632 11.112V17H133.688ZM159.161 17.276C158.18 17.276 157.375 17.1227 156.746 16.816C156.118 16.494 155.65 16.0723 155.343 15.551C155.037 15.0297 154.883 14.4547 154.883 13.826C154.883 12.768 155.297 11.9093 156.125 11.25C156.953 10.5907 158.195 10.261 159.851 10.261H162.749V9.985C162.749 9.203 162.527 8.628 162.082 8.26C161.638 7.892 161.086 7.708 160.426 7.708C159.828 7.708 159.307 7.85367 158.862 8.145C158.418 8.421 158.142 8.835 158.034 9.387H155.159C155.236 8.559 155.512 7.83833 155.987 7.225C156.478 6.61167 157.107 6.144 157.873 5.822C158.64 5.48467 159.499 5.316 160.449 5.316C162.075 5.316 163.355 5.72233 164.29 6.535C165.226 7.34767 165.693 8.49767 165.693 9.985V17H163.186L162.91 15.16C162.573 15.7733 162.098 16.2793 161.484 16.678C160.886 17.0767 160.112 17.276 159.161 17.276ZM159.828 14.976C160.672 14.976 161.323 14.7 161.783 14.148C162.259 13.596 162.558 12.9137 162.68 12.101H160.173C159.391 12.101 158.832 12.2467 158.494 12.538C158.157 12.814 157.988 13.159 157.988 13.573C157.988 14.0177 158.157 14.3627 158.494 14.608C158.832 14.8533 159.276 14.976 159.828 14.976ZM173.747 17.276C172.673 17.276 171.715 17.0153 170.872 16.494C170.028 15.9727 169.361 15.2597 168.871 14.355C168.38 13.4503 168.135 12.423 168.135 11.273C168.135 10.123 168.38 9.10333 168.871 8.214C169.361 7.30933 170.028 6.604 170.872 6.098C171.715 5.57667 172.673 5.316 173.747 5.316C174.605 5.316 175.357 5.477 176.001 5.799C176.645 6.121 177.166 6.57333 177.565 7.156V0.439999H180.509V17H177.887L177.565 15.367C177.197 15.873 176.706 16.3177 176.093 16.701C175.495 17.0843 174.713 17.276 173.747 17.276ZM174.368 14.7C175.318 14.7 176.093 14.3857 176.691 13.757C177.304 13.113 177.611 12.2927 177.611 11.296C177.611 10.2993 177.304 9.48667 176.691 8.858C176.093 8.214 175.318 7.892 174.368 7.892C173.432 7.892 172.658 8.20633 172.045 8.835C171.431 9.46367 171.125 10.2763 171.125 11.273C171.125 12.2697 171.431 13.09 172.045 13.734C172.658 14.378 173.432 14.7 174.368 14.7ZM189.05 17.276C187.9 17.276 186.88 17.0307 185.991 16.54C185.101 16.0493 184.404 15.3593 183.898 14.47C183.392 13.5807 183.139 12.5533 183.139 11.388C183.139 10.2073 183.384 9.157 183.875 8.237C184.381 7.317 185.071 6.604 185.945 6.098C186.834 5.57667 187.877 5.316 189.073 5.316C190.192 5.316 191.181 5.56133 192.04 6.052C192.898 6.54267 193.565 7.21733 194.041 8.076C194.531 8.91933 194.777 9.86233 194.777 10.905C194.777 11.0737 194.769 11.25 194.754 11.434C194.754 11.618 194.746 11.8097 194.731 12.009H186.06C186.121 12.8983 186.428 13.596 186.98 14.102C187.547 14.608 188.229 14.861 189.027 14.861C189.625 14.861 190.123 14.7307 190.522 14.47C190.936 14.194 191.242 13.8413 191.442 13.412H194.432C194.217 14.1327 193.857 14.792 193.351 15.39C192.86 15.9727 192.247 16.4327 191.511 16.77C190.79 17.1073 189.97 17.276 189.05 17.276ZM189.073 7.708C188.352 7.708 187.716 7.915 187.164 8.329C186.612 8.72767 186.259 9.341 186.106 10.169H191.787C191.741 9.41767 191.465 8.81967 190.959 8.375C190.453 7.93033 189.824 7.708 189.073 7.708ZM208.276 17.276C207.126 17.276 206.107 17.0307 205.217 16.54C204.328 16.0493 203.63 15.3593 203.124 14.47C202.618 13.5807 202.365 12.5533 202.365 11.388C202.365 10.2073 202.611 9.157 203.101 8.237C203.607 7.317 204.297 6.604 205.171 6.098C206.061 5.57667 207.103 5.316 208.299 5.316C209.419 5.316 210.408 5.56133 211.266 6.052C212.125 6.54267 212.792 7.21733 213.267 8.076C213.758 8.91933 214.003 9.86233 214.003 10.905C214.003 11.0737 213.996 11.25 213.98 11.434C213.98 11.618 213.973 11.8097 213.957 12.009H205.286C205.348 12.8983 205.654 13.596 206.206 14.102C206.774 14.608 207.456 14.861 208.253 14.861C208.851 14.861 209.35 14.7307 209.748 14.47C210.162 14.194 210.469 13.8413 210.668 13.412H213.658C213.444 14.1327 213.083 14.792 212.577 15.39C212.087 15.9727 211.473 16.4327 210.737 16.77C210.017 17.1073 209.196 17.276 208.276 17.276ZM208.299 7.708C207.579 7.708 206.942 7.915 206.39 8.329C205.838 8.72767 205.486 9.341 205.332 10.169H211.013C210.967 9.41767 210.691 8.81967 210.185 8.375C209.679 7.93033 209.051 7.708 208.299 7.708ZM220.412 17.276C219.431 17.276 218.626 17.1227 217.997 16.816C217.369 16.494 216.901 16.0723 216.594 15.551C216.288 15.0297 216.134 14.4547 216.134 13.826C216.134 12.768 216.548 11.9093 217.376 11.25C218.204 10.5907 219.446 10.261 221.102 10.261H224V9.985C224 9.203 223.778 8.628 223.333 8.26C222.889 7.892 222.337 7.708 221.677 7.708C221.079 7.708 220.558 7.85367 220.113 8.145C219.669 8.421 219.393 8.835 219.285 9.387H216.41C216.487 8.559 216.763 7.83833 217.238 7.225C217.729 6.61167 218.358 6.144 219.124 5.822C219.891 5.48467 220.75 5.316 221.7 5.316C223.326 5.316 224.606 5.72233 225.541 6.535C226.477 7.34767 226.944 8.49767 226.944 9.985V17H224.437L224.161 15.16C223.824 15.7733 223.349 16.2793 222.735 16.678C222.137 17.0767 221.363 17.276 220.412 17.276ZM221.079 14.976C221.923 14.976 222.574 14.7 223.034 14.148C223.51 13.596 223.809 12.9137 223.931 12.101H221.424C220.642 12.101 220.083 12.2467 219.745 12.538C219.408 12.814 219.239 13.159 219.239 13.573C219.239 14.0177 219.408 14.3627 219.745 14.608C220.083 14.8533 220.527 14.976 221.079 14.976ZM234.469 17.276C233.457 17.276 232.567 17.115 231.801 16.793C231.034 16.4557 230.421 15.9957 229.961 15.413C229.501 14.8303 229.225 14.1557 229.133 13.389H232.1C232.192 13.8337 232.437 14.217 232.836 14.539C233.25 14.8457 233.779 14.999 234.423 14.999C235.067 14.999 235.534 14.8687 235.826 14.608C236.132 14.3473 236.286 14.0483 236.286 13.711C236.286 13.2203 236.071 12.8907 235.642 12.722C235.212 12.538 234.614 12.3617 233.848 12.193C233.357 12.0857 232.859 11.9553 232.353 11.802C231.847 11.6487 231.379 11.457 230.95 11.227C230.536 10.9817 230.198 10.675 229.938 10.307C229.677 9.92367 229.547 9.456 229.547 8.904C229.547 7.892 229.945 7.041 230.743 6.351C231.555 5.661 232.69 5.316 234.147 5.316C235.496 5.316 236.569 5.63033 237.367 6.259C238.179 6.88767 238.662 7.754 238.816 8.858H236.033C235.864 8.01467 235.228 7.593 234.124 7.593C233.572 7.593 233.142 7.70033 232.836 7.915C232.544 8.12967 232.399 8.398 232.399 8.72C232.399 9.05733 232.621 9.32567 233.066 9.525C233.51 9.72433 234.101 9.90833 234.837 10.077C235.634 10.261 236.362 10.468 237.022 10.698C237.696 10.9127 238.233 11.2423 238.632 11.687C239.03 12.1163 239.23 12.7373 239.23 13.55C239.245 14.2553 239.061 14.8917 238.678 15.459C238.294 16.0263 237.742 16.471 237.022 16.793C236.301 17.115 235.45 17.276 234.469 17.276ZM242.657 22.06L245.302 16.241H244.612L240.173 5.592H243.37L246.567 13.619L249.902 5.592H253.03L245.785 22.06H242.657Z" fill="#979797"/>
</svg>
