<svg width="155" height="52" viewBox="0 0 155 52" fill="none" xmlns="http://www.w3.org/2000/svg">
<rect width="155" height="52" rx="25" fill="#4A90E2"/>
<path d="M41.4902 24.08C41.2022 23.5253 40.8022 23.1093 40.2902 22.832C39.7782 22.544 39.1862 22.4 38.5142 22.4C37.7782 22.4 37.1222 22.5653 36.5462 22.896C35.9702 23.2267 35.5169 23.696 35.1862 24.304C34.8662 24.912 34.7062 25.616 34.7062 26.416C34.7062 27.216 34.8662 27.9253 35.1862 28.544C35.5169 29.152 35.9702 29.6213 36.5462 29.952C37.1222 30.2827 37.7782 30.448 38.5142 30.448C39.5062 30.448 40.3115 30.1707 40.9302 29.616C41.5489 29.0613 41.9275 28.3093 42.0662 27.36H37.8902V25.904H44.0182V27.328C43.9009 28.192 43.5915 28.9867 43.0902 29.712C42.5995 30.4373 41.9542 31.0187 41.1542 31.456C40.3649 31.8827 39.4849 32.096 38.5142 32.096C37.4689 32.096 36.5142 31.856 35.6502 31.376C34.7862 30.8853 34.0982 30.208 33.5862 29.344C33.0849 28.48 32.8342 27.504 32.8342 26.416C32.8342 25.328 33.0849 24.352 33.5862 23.488C34.0982 22.624 34.7862 21.952 35.6502 21.472C36.5249 20.9813 37.4795 20.736 38.5142 20.736C39.6982 20.736 40.7489 21.0293 41.6662 21.616C42.5942 22.192 43.2662 23.0133 43.6822 24.08H41.4902ZM53.8972 27.376C53.8972 27.7067 53.8759 28.0053 53.8332 28.272H47.0972C47.1505 28.976 47.4119 29.5413 47.8812 29.968C48.3505 30.3947 48.9265 30.608 49.6092 30.608C50.5905 30.608 51.2839 30.1973 51.6892 29.376H53.6572C53.3905 30.1867 52.9052 30.8533 52.2012 31.376C51.5079 31.888 50.6439 32.144 49.6092 32.144C48.7665 32.144 48.0092 31.9573 47.3372 31.584C46.6759 31.2 46.1532 30.6667 45.7692 29.984C45.3959 29.2907 45.2092 28.4907 45.2092 27.584C45.2092 26.6773 45.3905 25.8827 45.7532 25.2C46.1265 24.5067 46.6439 23.9733 47.3052 23.6C47.9772 23.2267 48.7452 23.04 49.6092 23.04C50.4412 23.04 51.1825 23.2213 51.8332 23.584C52.4839 23.9467 52.9905 24.4587 53.3532 25.12C53.7159 25.7707 53.8972 26.5227 53.8972 27.376ZM51.9932 26.8C51.9825 26.128 51.7425 25.5893 51.2732 25.184C50.8039 24.7787 50.2225 24.576 49.5292 24.576C48.8999 24.576 48.3612 24.7787 47.9132 25.184C47.4652 25.5787 47.1985 26.1173 47.1132 26.8H51.9932ZM57.8202 24.672V29.552C57.8202 29.8827 57.8949 30.1227 58.0442 30.272C58.2042 30.4107 58.4709 30.48 58.8442 30.48H59.9642V32H58.5242C57.7029 32 57.0735 31.808 56.6362 31.424C56.1989 31.04 55.9802 30.416 55.9802 29.552V24.672H54.9402V23.184H55.9802V20.992H57.8202V23.184H59.9642V24.672H57.8202ZM69.0016 32.144C68.3082 32.144 67.6842 32.0213 67.1296 31.776C66.5856 31.52 66.1536 31.1787 65.8336 30.752C65.5136 30.3147 65.3429 29.8293 65.3216 29.296H67.2096C67.2416 29.6693 67.4176 29.984 67.7376 30.24C68.0682 30.4853 68.4789 30.608 68.9696 30.608C69.4816 30.608 69.8762 30.512 70.1536 30.32C70.4416 30.1173 70.5856 29.8613 70.5856 29.552C70.5856 29.2213 70.4256 28.976 70.1056 28.816C69.7962 28.656 69.3002 28.48 68.6176 28.288C67.9562 28.1067 67.4176 27.9307 67.0016 27.76C66.5856 27.5893 66.2229 27.328 65.9136 26.976C65.6149 26.624 65.4656 26.16 65.4656 25.584C65.4656 25.1147 65.6042 24.688 65.8816 24.304C66.1589 23.9093 66.5536 23.6 67.0656 23.376C67.5882 23.152 68.1856 23.04 68.8576 23.04C69.8602 23.04 70.6656 23.296 71.2736 23.808C71.8922 24.3093 72.2229 24.9973 72.2656 25.872H70.4416C70.4096 25.4773 70.2496 25.1627 69.9616 24.928C69.6736 24.6933 69.2842 24.576 68.7936 24.576C68.3136 24.576 67.9456 24.6667 67.6896 24.848C67.4336 25.0293 67.3056 25.2693 67.3056 25.568C67.3056 25.8027 67.3909 26 67.5616 26.16C67.7322 26.32 67.9402 26.448 68.1856 26.544C68.4309 26.6293 68.7936 26.7413 69.2736 26.88C69.9136 27.0507 70.4362 27.2267 70.8416 27.408C71.2576 27.5787 71.6149 27.8347 71.9136 28.176C72.2122 28.5173 72.3669 28.9707 72.3776 29.536C72.3776 30.0373 72.2389 30.4853 71.9616 30.88C71.6842 31.2747 71.2896 31.584 70.7776 31.808C70.2762 32.032 69.6842 32.144 69.0016 32.144ZM76.4764 24.672V29.552C76.4764 29.8827 76.5511 30.1227 76.7004 30.272C76.8604 30.4107 77.1271 30.48 77.5004 30.48H78.6204V32H77.1804C76.3591 32 75.7298 31.808 75.2924 31.424C74.8551 31.04 74.6364 30.416 74.6364 29.552V24.672H73.5964V23.184H74.6364V20.992H76.4764V23.184H78.6204V24.672H76.4764ZM79.6936 27.552C79.6936 26.6667 79.8749 25.8827 80.2376 25.2C80.6109 24.5173 81.1122 23.9893 81.7416 23.616C82.3816 23.232 83.0856 23.04 83.8536 23.04C84.5469 23.04 85.1496 23.1787 85.6616 23.456C86.1842 23.7227 86.6002 24.0587 86.9096 24.464V23.184H88.7496V32H86.9096V30.688C86.6002 31.104 86.1789 31.4507 85.6456 31.728C85.1122 32.0053 84.5042 32.144 83.8216 32.144C83.0642 32.144 82.3709 31.952 81.7416 31.568C81.1122 31.1733 80.6109 30.6293 80.2376 29.936C79.8749 29.232 79.6936 28.4373 79.6936 27.552ZM86.9096 27.584C86.9096 26.976 86.7816 26.448 86.5256 26C86.2802 25.552 85.9549 25.2107 85.5496 24.976C85.1442 24.7413 84.7069 24.624 84.2376 24.624C83.7682 24.624 83.3309 24.7413 82.9256 24.976C82.5202 25.2 82.1896 25.536 81.9336 25.984C81.6882 26.4213 81.5656 26.944 81.5656 27.552C81.5656 28.16 81.6882 28.6933 81.9336 29.152C82.1896 29.6107 82.5202 29.9627 82.9256 30.208C83.3416 30.4427 83.7789 30.56 84.2376 30.56C84.7069 30.56 85.1442 30.4427 85.5496 30.208C85.9549 29.9733 86.2802 29.632 86.5256 29.184C86.7816 28.7253 86.9096 28.192 86.9096 27.584ZM92.9693 24.464C93.236 24.016 93.588 23.6693 94.0253 23.424C94.4733 23.168 95.0013 23.04 95.6093 23.04V24.928H95.1453C94.4306 24.928 93.8866 25.1093 93.5133 25.472C93.1506 25.8347 92.9693 26.464 92.9693 27.36V32H91.1453V23.184H92.9693V24.464ZM99.4139 24.672V29.552C99.4139 29.8827 99.4886 30.1227 99.6379 30.272C99.7979 30.4107 100.065 30.48 100.438 30.48H101.558V32H100.118C99.2966 32 98.6673 31.808 98.2299 31.424C97.7926 31.04 97.5739 30.416 97.5739 29.552V24.672H96.5339V23.184H97.5739V20.992H99.4139V23.184H101.558V24.672H99.4139ZM111.319 27.376C111.319 27.7067 111.298 28.0053 111.255 28.272H104.519C104.572 28.976 104.834 29.5413 105.303 29.968C105.772 30.3947 106.348 30.608 107.031 30.608C108.012 30.608 108.706 30.1973 109.111 29.376H111.079C110.812 30.1867 110.327 30.8533 109.623 31.376C108.93 31.888 108.066 32.144 107.031 32.144C106.188 32.144 105.431 31.9573 104.759 31.584C104.098 31.2 103.575 30.6667 103.191 29.984C102.818 29.2907 102.631 28.4907 102.631 27.584C102.631 26.6773 102.812 25.8827 103.175 25.2C103.548 24.5067 104.066 23.9733 104.727 23.6C105.399 23.2267 106.167 23.04 107.031 23.04C107.863 23.04 108.604 23.2213 109.255 23.584C109.906 23.9467 110.412 24.4587 110.775 25.12C111.138 25.7707 111.319 26.5227 111.319 27.376ZM109.415 26.8C109.404 26.128 109.164 25.5893 108.695 25.184C108.226 24.7787 107.644 24.576 106.951 24.576C106.322 24.576 105.783 24.7787 105.335 25.184C104.887 25.5787 104.62 26.1173 104.535 26.8H109.415ZM112.506 27.552C112.506 26.6667 112.687 25.8827 113.05 25.2C113.423 24.5173 113.925 23.9893 114.554 23.616C115.194 23.232 115.903 23.04 116.682 23.04C117.258 23.04 117.823 23.168 118.378 23.424C118.943 23.6693 119.391 24 119.722 24.416V20.16H121.562V32H119.722V30.672C119.423 31.0987 119.007 31.4507 118.474 31.728C117.951 32.0053 117.349 32.144 116.666 32.144C115.898 32.144 115.194 31.952 114.554 31.568C113.925 31.1733 113.423 30.6293 113.05 29.936C112.687 29.232 112.506 28.4373 112.506 27.552ZM119.722 27.584C119.722 26.976 119.594 26.448 119.338 26C119.093 25.552 118.767 25.2107 118.362 24.976C117.957 24.7413 117.519 24.624 117.05 24.624C116.581 24.624 116.143 24.7413 115.738 24.976C115.333 25.2 115.002 25.536 114.746 25.984C114.501 26.4213 114.378 26.944 114.378 27.552C114.378 28.16 114.501 28.6933 114.746 29.152C115.002 29.6107 115.333 29.9627 115.738 30.208C116.154 30.4427 116.591 30.56 117.05 30.56C117.519 30.56 117.957 30.4427 118.362 30.208C118.767 29.9733 119.093 29.632 119.338 29.184C119.594 28.7253 119.722 28.192 119.722 27.584Z" fill="white"/>
</svg>
