<svg width="74" height="74" viewBox="0 0 74 74" fill="none" xmlns="http://www.w3.org/2000/svg">
<g clip-path="url(#clip0_1_87)">
<circle opacity="0.247347" cx="37.1239" cy="37.3168" r="36.4046" fill="#4A90E2"/>
<path d="M58.2905 51.5606L51.2593 44.5294C50.9077 44.2481 50.4858 44.0372 50.064 44.0372H48.939C50.8374 41.5762 52.0327 38.4825 52.0327 35.0372C52.0327 27.0215 45.4233 20.4122 37.4077 20.4122C29.3218 20.4122 22.7827 27.0215 22.7827 35.0372C22.7827 43.1231 29.3218 49.6622 37.4077 49.6622C40.7827 49.6622 43.8765 48.5372 46.4077 46.5684V47.7637C46.4077 48.1856 46.5483 48.6075 46.8999 48.959L53.8608 55.92C54.564 56.6231 55.6187 56.6231 56.2515 55.92L58.2202 53.9512C58.9233 53.3184 58.9233 52.2637 58.2905 51.5606ZM37.4077 44.0372C32.4155 44.0372 28.4077 40.0294 28.4077 35.0372C28.4077 30.1153 32.4155 26.0372 37.4077 26.0372C42.3296 26.0372 46.4077 30.1153 46.4077 35.0372C46.4077 40.0294 42.3296 44.0372 37.4077 44.0372Z" fill="#4A90E2"/>
</g>
<defs>
<clipPath id="clip0_1_87">
<rect width="72.8092" height="72.8092" fill="white" transform="translate(0.719299 0.91217)"/>
</clipPath>
</defs>
</svg>
